<svg width="18" height="17" viewBox="0 0 18 17" fill="none" xmlns="http://www.w3.org/2000/svg">
<path d="M0.21077 7.97491C0.25452 7.65554 0.293895 7.33616 0.34202 7.02116C0.372645 6.83741 0.416395 6.65804 0.45577 6.45679C3.34765 7.58991 6.30515 7.89616 9.36327 7.25741C9.5689 7.78679 9.77453 8.31617 9.9889 8.86304C6.51952 9.57179 4.42827 11.7462 3.32577 15.0187C3.27327 14.9793 3.22515 14.9443 3.18577 14.9093C1.4839 13.4306 0.49952 11.5712 0.250145 9.33117C0.23702 9.23054 0.223895 9.12554 0.21077 9.02492C0.21077 8.67492 0.21077 8.32492 0.21077 7.97491Z" fill="#9993B3"/>
<path d="M8.08578 16.9001C7.77078 16.8563 7.46015 16.8213 7.14952 16.7688C6.1214 16.5938 5.16327 16.2263 4.27076 15.6882C4.20951 15.6488 4.17889 15.6226 4.20514 15.5351C4.59014 14.2882 5.13702 13.1332 6.01202 12.1532C7.12765 10.902 8.5189 10.1582 10.1595 9.85199C10.1902 9.84762 10.2252 9.84324 10.2864 9.83887C10.3652 10.1845 10.4483 10.5257 10.5183 10.8714C10.7502 12.022 10.8202 13.177 10.7152 14.3451C10.6452 15.137 10.4527 15.907 10.2339 16.6682C10.2208 16.712 10.1464 16.7601 10.0983 16.7688C9.81828 16.8126 9.53391 16.8432 9.2539 16.8782C9.20578 16.8826 9.15765 16.8957 9.10953 16.9045C8.7639 16.9001 8.42703 16.9001 8.08578 16.9001Z" fill="#9993B3"/>
<path d="M9.13578 0.0993457C9.45515 0.143096 9.77453 0.173721 10.0895 0.230596C12.1195 0.606845 13.7864 1.59997 15.1077 3.18372C15.1164 3.19684 15.1252 3.20997 15.147 3.24497C14.832 3.48559 14.5258 3.73497 14.2064 3.97122C12.9377 4.90309 11.5508 5.60309 10.037 6.04934C9.92765 6.07996 9.87515 6.06684 9.82265 5.95746C8.86453 4.01934 7.67453 2.22997 6.28765 0.571845C6.2614 0.54122 6.23515 0.501845 6.1914 0.440595C6.51952 0.36622 6.8214 0.28747 7.13202 0.230596C7.46015 0.173721 7.79265 0.138721 8.12078 0.0949707C8.45765 0.0993457 8.7989 0.0993457 9.13578 0.0993457Z" fill="#9993B3"/>
<path d="M17.0108 9.02473C16.9889 9.19535 16.9626 9.37035 16.9408 9.52348C16.2408 9.35285 15.5495 9.16473 14.8539 9.01598C13.6464 8.76223 12.4258 8.63535 11.192 8.72723C11.0258 8.74035 10.9514 8.70098 10.8945 8.53035C10.7414 8.07098 10.5576 7.62036 10.3826 7.16536C10.3651 7.11723 10.3433 7.06473 10.3214 7.00348C12.3383 6.40411 14.1189 5.38473 15.7551 4.01099C15.9783 4.46599 16.2058 4.89473 16.3939 5.33661C16.7351 6.13723 16.9233 6.97723 16.9889 7.84348C16.9933 7.89598 17.0064 7.94848 17.0151 8.00098C17.0108 8.34661 17.0108 8.68785 17.0108 9.02473Z" fill="#9993B3"/>
<path d="M5.2114 0.830078C6.6639 2.5057 7.91077 4.32571 8.91265 6.31633C6.44952 6.85883 3.29077 6.57883 0.783897 5.50696C1.08577 3.94946 3.4089 1.4907 5.2114 0.830078Z" fill="#9993B3"/>
<path d="M11.2708 9.70758C13.1564 9.59383 14.9633 9.97008 16.7614 10.5257C16.4245 11.8601 15.8076 13.0369 14.902 14.0607C13.922 15.1632 12.7364 15.9594 11.332 16.4494C11.822 13.2557 11.9576 13.7194 11.2708 9.70758Z" fill="#9993B3"/>
</svg>
