<svg width="10" height="17" viewBox="0 0 10 17" fill="none" xmlns="http://www.w3.org/2000/svg">
<path d="M3.10448 16.8871C3.10448 16.8195 3.09096 16.7519 3.09096 16.6707C3.09096 14.2637 3.09096 11.8701 3.09096 9.4631C3.09096 9.39548 3.09096 9.32787 3.09096 9.23321C2.2255 9.23321 1.37357 9.23321 0.521637 9.23321C0.521637 8.23253 0.521637 7.24537 0.521637 6.24469C1.37357 6.24469 2.2255 6.24469 3.09096 6.24469C3.09096 6.16355 3.09096 6.09594 3.09096 6.02832C3.09096 5.24401 3.07743 4.45969 3.10448 3.68889C3.14505 2.7423 3.4155 1.89037 4.09164 1.18719C4.59198 0.659799 5.22755 0.348776 5.93073 0.200026C6.51221 0.0783215 7.09368 0.0918443 7.67516 0.11889C8.14846 0.132412 8.62175 0.172981 9.09505 0.213549C9.13561 0.213549 9.16266 0.227072 9.21675 0.240594C9.21675 1.11957 9.21675 1.99855 9.21675 2.90457C9.16266 2.90457 9.10857 2.90457 9.04096 2.90457C8.45948 2.9181 7.878 2.90457 7.283 2.93162C6.59334 2.97219 6.20118 3.35082 6.17414 4.04048C6.14709 4.75719 6.16061 5.48741 6.16061 6.20412C6.16061 6.21764 6.17414 6.21764 6.17414 6.25821C7.13425 6.25821 8.10789 6.25821 9.09505 6.25821C8.95982 7.25889 8.83811 8.24605 8.71641 9.24673C7.86448 9.24673 7.02607 9.24673 6.16061 9.24673C6.16061 9.31435 6.14709 9.35492 6.14709 9.40901C6.14709 11.8701 6.14709 14.3313 6.14709 16.7924C6.14709 16.833 6.14709 16.8736 6.16061 16.9006C5.15993 16.8871 4.13221 16.8871 3.10448 16.8871Z" fill="#fff"/>
</svg>
