<svg width="18" height="17" viewBox="0 0 18 17" fill="none" xmlns="http://www.w3.org/2000/svg">
<path d="M13.0793 16.9004C10.3237 16.9004 7.56811 16.9004 4.81253 16.9004C4.45988 16.8266 4.09903 16.7897 3.75869 16.6789C1.80682 16.0351 0.556149 14.321 0.547948 12.2746C0.539747 9.7608 0.543847 7.24697 0.547948 4.73314C0.547948 3.93757 0.724272 3.17892 1.12613 2.48997C2.04055 0.927543 3.41424 0.119674 5.22259 0.107371C7.70343 0.0909675 10.1843 0.0991692 12.6651 0.107371C12.9768 0.107371 13.2925 0.123774 13.5918 0.193489C15.474 0.611777 16.6796 1.75592 17.2003 3.61361C17.27 3.85966 17.2946 4.11801 17.3398 4.36816C17.3398 7.12394 17.3398 9.87972 17.3398 12.6355C17.311 12.8077 17.2946 12.98 17.2577 13.1522C16.8313 15.0345 15.6913 16.2443 13.8297 16.7651C13.5877 16.8307 13.3294 16.8553 13.0793 16.9004ZM4.34097 8.49363C4.32457 11.0157 6.37075 13.0743 8.9254 13.1071C11.4431 13.1399 13.5303 11.0649 13.5467 8.51413C13.5631 5.99211 11.517 3.93347 8.9623 3.90067C6.44456 3.86786 4.35737 5.94289 4.34097 8.49363ZM15.2239 3.61771C15.2239 2.85085 14.5924 2.21931 13.8256 2.22341C13.0629 2.22341 12.4232 2.86315 12.4273 3.62181C12.4314 4.38047 13.0711 5.0202 13.8297 5.0202C14.5883 5.0202 15.2239 4.38457 15.2239 3.61771Z" fill="#9993B3"/>
<path d="M8.95007 12.1142C6.95719 12.1183 5.32927 10.4944 5.33337 8.50157C5.33747 6.5128 6.94899 4.89717 8.94187 4.89307C10.9347 4.88897 12.5627 6.5128 12.5586 8.50567C12.5545 10.4944 10.9388 12.1101 8.95007 12.1142Z" fill="#9993B3"/>
<path d="M14.2313 3.61349C14.2313 3.83483 14.0468 4.02339 13.8296 4.02339C13.6123 4.02339 13.4197 3.83074 13.4238 3.61349C13.4238 3.40034 13.6082 3.21999 13.8214 3.21589C14.0427 3.21179 14.2272 3.39214 14.2313 3.61349Z" fill="#9993B3"/>
</svg>
