<svg width="17" height="17" viewBox="0 0 17 17" fill="none" xmlns="http://www.w3.org/2000/svg">
<g clip-path="url(#clip0_196_2483)">
<path d="M9.44201 16.2009C8.36923 16.2009 7.32652 16.2009 6.26376 16.2009C6.26376 12.782 6.26376 9.36812 6.26376 5.93921C7.26637 5.93921 8.27398 5.93921 9.30165 5.93921C9.30165 6.3954 9.30165 6.84657 9.30165 7.32281C9.34175 7.29774 9.36181 7.29273 9.37183 7.28271C10.0436 6.19989 11.0462 5.72365 12.2844 5.68856C12.9912 5.66851 13.683 5.75373 14.3347 6.05953C15.1769 6.45556 15.6481 7.15237 15.9088 8.01461C16.1143 8.7064 16.1895 9.41324 16.1945 10.1301C16.2096 12.1102 16.2046 14.0904 16.2046 16.0705C16.2046 16.1006 16.1996 16.1307 16.1996 16.1708C15.1418 16.1708 14.0891 16.1708 13.0113 16.1708C13.0113 16.1006 13.0113 16.0304 13.0113 15.9603C13.0113 14.2809 13.0163 12.6015 13.0063 10.9222C13.0013 10.5412 12.9712 10.1552 12.906 9.7842C12.7105 8.73147 12.0287 8.37554 11.0512 8.49084C10.1589 8.59612 9.6676 9.11747 9.52724 10.085C9.47711 10.4359 9.45204 10.7968 9.45204 11.1528C9.44202 12.7569 9.44703 14.3611 9.44703 15.9653C9.44201 16.0304 9.44201 16.1056 9.44201 16.2009Z" fill="#9993B3"/>
<path d="M1.06525 5.93408C2.13302 5.93408 3.18074 5.93408 4.23849 5.93408C4.23849 9.35798 4.23849 12.7668 4.23849 16.1958C3.18074 16.1958 2.12801 16.1958 1.06525 16.1958C1.06525 12.7719 1.06525 9.36299 1.06525 5.93408Z" fill="#9993B3"/>
<path d="M4.49416 2.64566C4.49917 3.66331 3.67202 4.51051 2.6644 4.51552C1.64676 4.52053 0.799561 3.67333 0.799561 2.65068C0.799561 1.64306 1.62671 0.810897 2.63433 0.800871C3.65197 0.790845 4.48914 1.61799 4.49416 2.64566Z" fill="#9993B3"/>
</g>
<defs>
<clipPath id="clip0_196_2483">
<rect width="15.405" height="15.4" fill="#9993B3" transform="translate(0.799561 0.800781)"/>
</clipPath>
</defs>
</svg>
