<svg width="18" height="16" viewBox="0 0 18 16" fill="none" xmlns="http://www.w3.org/2000/svg">
<path d="M17.788 3.37004C17.5296 3.80071 17.263 4.22727 17.0087 4.65793C16.9636 4.73586 16.939 4.8425 16.9513 4.92864C17.2138 6.6554 17.0456 8.32883 16.3443 9.93665C15.9464 10.839 15.3968 11.6429 14.7529 12.3853C13.3993 13.9398 11.6521 14.7273 9.64642 14.9857C7.27982 15.2933 4.98294 14.9939 2.764 14.1243C2.32923 13.9562 1.91908 13.7429 1.56634 13.4271C1.34896 13.2302 1.29154 13.0333 1.37357 12.8159C1.4556 12.5986 1.64017 12.5001 1.92728 12.4919C2.45228 12.4837 2.97728 12.4919 3.49818 12.4509C4.36771 12.3812 5.17162 12.1064 5.88119 11.5404C5.78685 11.5157 5.70892 11.4911 5.63099 11.4706C4.70814 11.2081 3.83861 10.839 3.08802 10.2279C2.92806 10.0966 2.7722 9.95715 2.62865 9.8095C2.33334 9.51419 2.44818 9.07532 2.84603 8.95637C3.01419 8.90715 3.18236 8.86614 3.36693 8.81692C3.10853 8.64876 2.85834 8.5052 2.62865 8.33294C1.7099 7.65208 1.1849 6.72922 0.992126 5.6095C0.930602 5.25676 1.25873 4.96965 1.61146 5.05579C1.79193 5.0968 1.9642 5.15833 2.15287 5.21165C2.06263 4.94915 1.96009 4.70305 1.89857 4.44876C1.65658 3.48489 1.77142 2.57434 2.32513 1.73352C2.61224 1.29465 3.0347 1.30696 3.289 1.76223C3.78939 2.65227 4.42103 3.43567 5.22494 4.07141C6.26263 4.89583 7.43978 5.39211 8.75638 5.56848C8.79329 5.57258 8.83021 5.58079 8.87122 5.58489C8.90814 5.58899 8.94505 5.59309 8.99017 5.59719C9.00247 5.32649 9.00657 5.05989 9.03528 4.79329C9.20755 3.16086 10.3109 1.61457 12.0417 1.25364C12.8169 1.09368 13.5634 1.17571 14.2812 1.51204C14.3837 1.56125 14.4658 1.56536 14.5683 1.51204C15.2081 1.19211 15.8521 0.876293 16.496 0.568675C16.8447 0.400511 17.1892 0.548168 17.2466 0.900902C17.2671 1.02395 17.2261 1.17161 17.1728 1.29055C16.9595 1.74993 16.7257 2.2011 16.5001 2.65637C16.4755 2.70559 16.455 2.75071 16.4222 2.82454C16.6683 2.80403 16.8857 2.79993 17.099 2.76711C17.4312 2.71379 17.665 2.82454 17.7962 3.13625C17.788 3.21418 17.788 3.29211 17.788 3.37004ZM15.6265 2.14368C15.6183 2.13547 15.606 2.12727 15.5978 2.11907C15.3189 2.25442 15.0318 2.37747 14.7611 2.52922C14.4986 2.67688 14.2648 2.65637 14.0105 2.50461C13.4609 2.18059 12.862 2.10676 12.2386 2.23391C11.0327 2.48411 10.2247 3.56282 10.0443 4.75227C9.98275 5.15422 9.99505 5.55618 10.0689 5.95813C10.1427 6.36419 9.92532 6.6636 9.55208 6.63079C8.99837 6.58157 8.43646 6.54055 7.89915 6.41751C5.99193 5.99915 4.44154 4.99426 3.22748 3.46848C3.10853 3.31672 2.98959 3.16086 2.85423 2.9845C2.73939 3.45618 2.7681 3.89094 2.89935 4.32161C3.0183 4.71946 3.22337 5.07219 3.50638 5.37981C3.65404 5.53977 3.71556 5.72434 3.62943 5.93762C3.5474 6.1427 3.38334 6.23704 3.17416 6.25754C3.04291 6.26985 2.91576 6.29036 2.78451 6.29446C2.60404 6.30266 2.42357 6.29446 2.2349 6.29446C2.2513 6.33137 2.26771 6.37239 2.28822 6.41751C2.61224 7.06965 3.11673 7.54133 3.76068 7.86126C4.0847 8.02122 4.43744 8.12786 4.78197 8.25911C4.97884 8.33294 5.10599 8.46419 5.1306 8.67337C5.15931 8.89075 5.06908 9.05481 4.88451 9.17376C4.82298 9.21067 4.76556 9.24758 4.69994 9.2845C4.47025 9.41165 4.23646 9.53469 3.98626 9.66594C4.16673 9.77258 4.32669 9.87512 4.49896 9.96536C5.26185 10.3632 6.07806 10.6011 6.92708 10.7241C7.15677 10.757 7.34954 10.8431 7.42747 11.081C7.5054 11.3107 7.40697 11.4911 7.25111 11.6552C6.34466 12.6314 5.24544 13.2384 3.91654 13.4148C3.89193 13.4189 3.86732 13.4353 3.8222 13.4558C4.8558 13.8003 5.89349 13.989 6.95579 14.0669C7.89095 14.1366 8.82611 14.112 9.75306 13.9644C10.8113 13.7962 11.8079 13.4599 12.7103 12.8693C13.4322 12.3935 14.0105 11.7659 14.5232 11.081C15.1589 10.232 15.6101 9.2927 15.8603 8.25911C16.131 7.14758 16.1105 6.02786 15.9341 4.90813C15.8972 4.68254 15.9259 4.47747 16.0613 4.28469C16.1515 4.15344 16.2294 4.00989 16.3279 3.85403C16.0531 3.87454 15.807 3.89915 15.5609 3.90325C15.3025 3.90735 15.0892 3.73508 15.0728 3.48899C15.0646 3.36594 15.1015 3.23059 15.1548 3.11575C15.3025 2.77942 15.4665 2.4636 15.6265 2.14368Z" fill="#9993B3"/>
<path d="M15.6267 2.14375C15.4667 2.46367 15.3027 2.78359 15.155 3.10762C15.1017 3.22246 15.0648 3.35781 15.073 3.48086C15.0894 3.72695 15.3027 3.89922 15.5611 3.89512C15.8072 3.89102 16.0492 3.86641 16.3281 3.8459C16.2296 4.00586 16.1517 4.14531 16.0615 4.27656C15.9302 4.46934 15.9015 4.67442 15.9343 4.9C16.1107 6.01973 16.1312 7.13946 15.8605 8.25098C15.6062 9.28458 15.1591 10.2238 14.5234 11.0729C14.0107 11.7578 13.4365 12.3854 12.7105 12.8611C11.8081 13.4518 10.8115 13.7881 9.75325 13.9563C8.8263 14.1039 7.89524 14.1326 6.95598 14.0588C5.89778 13.9768 4.85598 13.7922 3.82238 13.4477C3.8634 13.4272 3.88801 13.4108 3.91672 13.4067C5.24563 13.2303 6.34485 12.6233 7.25129 11.6471C7.40715 11.4789 7.50559 11.3025 7.42766 11.0729C7.34973 10.835 7.15696 10.7488 6.92727 10.716C6.07825 10.593 5.26203 10.3592 4.49914 9.95723C4.33098 9.8711 4.17102 9.76446 3.98645 9.65782C4.23664 9.52247 4.47043 9.39942 4.70012 9.27637C4.76164 9.24356 4.82317 9.20665 4.88469 9.16563C5.06516 9.04669 5.15539 8.88262 5.13078 8.66524C5.10207 8.45606 4.97903 8.32481 4.78215 8.25098C4.44172 8.12383 4.08899 8.01719 3.76086 7.85313C3.11691 7.53731 2.61242 7.06153 2.2884 6.40938C2.26789 6.36426 2.24738 6.31914 2.23508 6.28633C2.41965 6.28633 2.60012 6.29043 2.78469 6.28633C2.91594 6.28223 3.04719 6.26172 3.17434 6.24942C3.38762 6.22891 3.54758 6.13047 3.62961 5.9295C3.71574 5.71621 3.65422 5.53164 3.50656 5.37168C3.22766 5.06407 3.01848 4.71133 2.89953 4.31348C2.77238 3.88281 2.74367 3.44805 2.85441 2.97637C2.98977 3.15274 3.10461 3.30859 3.22766 3.46035C4.44172 4.98614 5.99211 5.99102 7.89524 6.41758C8.43665 6.53653 8.99446 6.58164 9.54817 6.63086C9.91731 6.66368 10.1388 6.36426 10.065 5.95821C9.99114 5.55625 9.97884 5.1543 10.0404 4.75235C10.2208 3.56289 11.0288 2.48418 12.2347 2.23398C12.8581 2.10684 13.457 2.17656 14.0066 2.50469C14.265 2.65645 14.4947 2.67695 14.7572 2.5293C15.0279 2.37754 15.315 2.25449 15.5939 2.11914C15.6062 2.12734 15.6144 2.13555 15.6267 2.14375Z" fill="#9993B3"/>
</svg>
