<svg width="18" height="13" viewBox="0 0 18 13" fill="none" xmlns="http://www.w3.org/2000/svg">
<path d="M0.766251 9.66381C0.766251 7.34944 0.766251 5.03944 0.766251 2.72506C0.766251 2.72068 0.766251 2.71631 0.766251 2.70756C0.783751 2.61568 0.801251 2.52381 0.818751 2.42756C1.09438 1.08006 2.16625 0.200684 3.54437 0.200684C7.32 0.200684 11.0912 0.200684 14.8669 0.200684C16.0875 0.200684 17.1462 1.01443 17.4656 2.19131C17.5006 2.33131 17.5312 2.47131 17.5662 2.60693C17.5662 2.61131 17.5706 2.62006 17.5706 2.62443V9.75131C17.5706 9.76006 17.5706 9.76881 17.5662 9.77756C17.5531 9.81256 17.5356 9.84756 17.5312 9.88694C17.3475 11.1863 16.2056 12.1838 14.8844 12.1838C11.1437 12.1838 7.40312 12.1838 3.6625 12.1794C3.505 12.1794 3.3475 12.1707 3.19 12.1532C2.02188 12.0351 1.05938 11.1601 0.840626 10.0138C0.818751 9.90006 0.796876 9.78631 0.770626 9.67256C0.766251 9.67694 0.766251 9.67256 0.766251 9.66381ZM7.14062 6.18569C7.14062 6.94694 7.13625 7.70381 7.14062 8.46506C7.145 8.91569 7.46437 9.09069 7.84937 8.85881C8.30437 8.58756 8.75937 8.31194 9.21 8.04069C10.0062 7.55944 10.7981 7.07819 11.5944 6.60131C11.7431 6.51381 11.8569 6.40881 11.8656 6.22069C11.8744 6.01069 11.7606 5.89256 11.5944 5.79194C10.6844 5.24506 9.77875 4.69819 8.87312 4.15131C8.55812 3.96319 8.24312 3.76631 7.92812 3.58256C7.49062 3.32443 7.13625 3.52568 7.13625 4.03319C7.13625 4.03756 7.13625 4.03756 7.13625 4.04194C7.13625 4.75506 7.13625 5.47256 7.14062 6.18569Z" fill="#fff"/>
</svg>
